<svg
  xmlns="http://www.w3.org/2000/svg"
  xmlns:xlink="http://www.w3.org/1999/xlink"
  x="0px"
  y="0px"
  viewBox="0 0 536.4 390.5">
  <style type="text/css">
		.st0{clip-path:url(#SVGID_2_);fill:#3E3C36;}
		.st1{clip-path:url(#SVGID_2_);fill:#B6B5BB;}
		.st2{clip-path:url(#SVGID_2_);fill:#F4C229;}
		.st3{clip-path:url(#SVGID_2_);fill:#FFFFFF;}
	</style>
<g>
		<defs>
			<rect id="SVGID_1_" width="536.4" height="390.5"/>
		</defs>
		<clipPath id="SVGID_2_">
			<use xlink:href="#SVGID_1_"  style="overflow:visible;"/>
		</clipPath>
		<path class="st0" d="M358.2,144.4c0,0,6.2,79.8-63.9,129.5c-60.2,42.6-162.1,39-162.1,39L0,362.5c0,0,68.2-83.3,148.1-168.4
			c25.6-27.2,143.6-151.8,180-151.8S358.2,144.4,358.2,144.4"/>
		<path class="st0" d="M180.2,328.6c0,5.5,4.5,10,10,10h27.9c5.5,0,10-4.5,10-10V290c0-5.5-4.5-10-10-10h-27.9c-5.5,0-10,4.5-10,10
			V328.6z"/>
		<rect x="221.4" y="324" transform="matrix(0.8445 -0.5355 0.5355 0.8445 -156.6674 176.7666)" class="st0" width="9.4" height="68.4"/>
		<rect x="200.7" y="381.1" class="st0" width="94.5" height="9.4"/>
		<rect x="292.7" y="313.8" transform="matrix(0.7071 -0.7071 0.7071 0.7071 -125.6509 333.6401)" class="st0" width="94.5" height="9.4"/>
		<path class="st0" d="M271.9,331.5c5.3,1.6,11.4-1.2,13.6-6.2l11.5-26.2c2.2-5-0.3-10.5-5.5-12.1l-57.2-17.6
			c-5.3-1.6-11.4,1.2-13.6,6.2l-11.5,26.2c-2.2,5,0.3,10.5,5.5,12.1L271.9,331.5z"/>
		<rect x="294.4" y="279.7" transform="matrix(0.3065 -0.9519 0.9519 0.3065 -91.387 502.4526)" class="st0" width="9.4" height="68.4"/>
		<path class="st1" d="M160.7,194c4.1-4.3,10.5-11.2,18.6-19.6l0.1,0.1c0.2-0.3,0.4-0.6,0.6-0.9c3.1-3.2,6.4-6.7,10-10.3
			c8.3-6.3,18.6-10.1,29.8-10.1c27.1,0,49,22,49,49c0,13.2-3.1,26.3-28.7,44.5c-33.6,23.9-113.4,38.6-171.5,49.6
			C94.1,266.9,126.3,230.7,160.7,194"/>
		<path class="st2" d="M324.4,162c46.7,11.6,201,7.5,201,7.5s-39-59.7-83.1-91.2C387.6,39.2,333,38.9,333,38.9s-40.4,7.6-46.1,51.6
			C280.1,142.4,308,157.9,324.4,162"/>
		<path class="st0" d="M444.3,170.2c-44.7-7.8-78.2-39.1-78.2-39.1c33,26.6,87.2,35.9,121,39.1H444.3z"/>
		<path class="st3" d="M331.7,89.9c0,13,10.5,23.6,23.6,23.6c13,0,23.6-10.5,23.6-23.6c0-13-10.5-23.6-23.6-23.6
			C342.3,66.3,331.7,76.9,331.7,89.9"/>
		<path class="st0" d="M347.2,93.6c0,7.8,6.3,14.1,14.1,14.1c7.8,0,14.1-6.3,14.1-14.1c0-7.8-6.3-14.1-14.1-14.1
			C353.6,79.5,347.2,85.8,347.2,93.6"/>
		<polygon class="st0" points="344.9,0 345.8,0 498.1,0 498.1,5.8 386.6,27.5 384.1,48.6 345.8,48.6 344.9,48.6 306.4,48.6
			303.9,27.5 184.5,5.8 184.5,0 	"/>
		<rect x="493.4" y="0" class="st0" width="9.4" height="65.1"/>
		<polygon class="st0" points="511.8,73 497.9,51.3 484.1,73 	"/>
		<path class="st3" d="M359.8,92.1l-9.6-17.9c-4.9,2.7-8.3,7.1-9.8,12.1L359.8,92.1z"/>
	</g>
</svg>
